<svg xmlns="http://www.w3.org/2000/svg" width="1200" height="630" viewBox="0 0 1200 630" role="img" aria-labelledby="title desc">
  <title id="title">Natelly social preview</title>
  <desc id="desc">Natelly builds people-first digital products, including games, apps, and original ideas.</desc>
  <defs>
    <linearGradient id="bg" x1="0%" y1="0%" x2="100%" y2="100%">
      <stop offset="0%" stop-color="#fffaf5" />
      <stop offset="100%" stop-color="#f4ebe4" />
    </linearGradient>
    <linearGradient id="arch" x1="0%" y1="0%" x2="100%" y2="100%">
      <stop offset="0%" stop-color="#7b60ff" />
      <stop offset="55%" stop-color="#d95f88" />
      <stop offset="100%" stop-color="#ffab79" />
    </linearGradient>
    <filter id="shadow" x="-20%" y="-20%" width="140%" height="140%">
      <feDropShadow dx="0" dy="20" stdDeviation="24" flood-color="#432f42" flood-opacity="0.10" />
    </filter>
  </defs>

  <rect width="1200" height="630" fill="url(#bg)" />
  <circle cx="92" cy="96" r="182" fill="#ffd8ca" fill-opacity="0.76" />
  <circle cx="1112" cy="68" r="176" fill="#d9d2ff" fill-opacity="0.86" />

  <g filter="url(#shadow)">
    <path d="M792 96c0-44.2 35.8-80 80-80h166c44.2 0 80 35.8 80 80v408c0 46.4-37.6 84-84 84H792V96Z" fill="url(#arch)" />
    <rect x="706" y="144" width="302" height="430" rx="56" fill="#fff1e8" fill-opacity="0.92" />
    <rect x="772" y="226" width="180" height="40" rx="20" fill="#7b60ff" fill-opacity="0.92" />
    <rect x="772" y="300" width="140" height="40" rx="20" fill="#22b7b7" fill-opacity="0.92" />
    <rect x="772" y="374" width="196" height="40" rx="20" fill="#ffab79" fill-opacity="0.92" />
  </g>

  <g font-family="Arial, Helvetica, sans-serif">
    <text x="96" y="122" font-size="28" font-weight="700" letter-spacing="8" fill="#8b6b84">NATELLY</text>
    <text x="96" y="214" font-size="88" font-weight="700" fill="#241d28">People-first</text>
    <text x="96" y="304" font-size="88" font-weight="700" fill="#241d28">digital</text>
    <text x="96" y="394" font-size="88" font-weight="700" fill="#241d28">products</text>
    <text x="96" y="492" font-size="34" fill="#675c69">Games + apps + original ideas</text>
    <text x="96" y="536" font-size="30" fill="#675c69">Small-company energy. Thoughtful product direction.</text>
    <text x="96" y="582" font-size="24" fill="#675c69">natelly.com</text>
  </g>
</svg>
